<mxfile host="app.diagrams.net" agent="Mozilla/5.0 (Windows NT 10.0; Win64; x64; rv:135.0) Gecko/20100101 Firefox/135.0" version="26.0.14">
  <diagram id="R2lEEEUBdFMjLlhIrx00" name="Page-1">
    <mxGraphModel grid="0" page="0" gridSize="10" guides="1" tooltips="1" connect="1" arrows="1" fold="1" pageScale="1" pageWidth="850" pageHeight="1100" math="0" shadow="0" extFonts="Permanent Marker^https://fonts.googleapis.com/css?family=Permanent+Marker">
      <root>
        <mxCell id="0" />
        <mxCell id="1" parent="0" />
        <mxCell id="E8Ke-DdmPu5ThaMP5Xu_-17" style="edgeStyle=orthogonalEdgeStyle;rounded=0;orthogonalLoop=1;jettySize=auto;html=1;curved=1;endArrow=none;startFill=0;" edge="1" parent="1" source="E8Ke-DdmPu5ThaMP5Xu_-1" target="E8Ke-DdmPu5ThaMP5Xu_-16">
          <mxGeometry relative="1" as="geometry">
            <Array as="points">
              <mxPoint x="-825" y="58" />
            </Array>
          </mxGeometry>
        </mxCell>
        <mxCell id="E8Ke-DdmPu5ThaMP5Xu_-21" style="edgeStyle=orthogonalEdgeStyle;shape=connector;curved=1;rounded=0;orthogonalLoop=1;jettySize=auto;html=1;strokeColor=default;align=center;verticalAlign=middle;fontFamily=Helvetica;fontSize=11;fontColor=default;labelBackgroundColor=default;startFill=0;endArrow=none;" edge="1" parent="1" source="E8Ke-DdmPu5ThaMP5Xu_-1" target="E8Ke-DdmPu5ThaMP5Xu_-14">
          <mxGeometry relative="1" as="geometry">
            <Array as="points">
              <mxPoint x="-825" y="198" />
            </Array>
          </mxGeometry>
        </mxCell>
        <mxCell id="E8Ke-DdmPu5ThaMP5Xu_-23" style="edgeStyle=orthogonalEdgeStyle;shape=connector;curved=1;rounded=0;orthogonalLoop=1;jettySize=auto;html=1;strokeColor=default;align=center;verticalAlign=middle;fontFamily=Helvetica;fontSize=11;fontColor=default;labelBackgroundColor=default;startFill=0;endArrow=none;" edge="1" parent="1" source="E8Ke-DdmPu5ThaMP5Xu_-1" target="E8Ke-DdmPu5ThaMP5Xu_-13">
          <mxGeometry relative="1" as="geometry">
            <mxPoint x="-832" y="394" as="sourcePoint" />
            <Array as="points">
              <mxPoint x="-825" y="484" />
            </Array>
          </mxGeometry>
        </mxCell>
        <mxCell id="FOldFa_URZsbehbHwNID-5" style="edgeStyle=orthogonalEdgeStyle;shape=connector;curved=1;rounded=0;orthogonalLoop=1;jettySize=auto;html=1;strokeColor=default;align=center;verticalAlign=middle;fontFamily=Helvetica;fontSize=11;fontColor=default;labelBackgroundColor=default;startFill=0;endArrow=none;" edge="1" parent="1" source="E8Ke-DdmPu5ThaMP5Xu_-1" target="FOldFa_URZsbehbHwNID-3">
          <mxGeometry relative="1" as="geometry" />
        </mxCell>
        <mxCell id="E8Ke-DdmPu5ThaMP5Xu_-1" value="CLIENTE" style="swimlane;childLayout=stackLayout;horizontal=1;startSize=50;horizontalStack=0;rounded=1;fontSize=14;fontStyle=0;strokeWidth=2;resizeParent=0;resizeLast=1;shadow=0;dashed=0;align=center;arcSize=4;whiteSpace=wrap;html=1;fillColor=#647687;strokeColor=#314354;fontColor=#ffffff;" vertex="1" parent="1">
          <mxGeometry x="-905" y="273" width="160" height="150" as="geometry" />
        </mxCell>
        <mxCell id="E8Ke-DdmPu5ThaMP5Xu_-2" value="&lt;div&gt;id&lt;/div&gt;&lt;div&gt;nombre&lt;/div&gt;&lt;div&gt;plan&lt;/div&gt;&lt;div&gt;expiraciÃ³n_plan&lt;/div&gt;&lt;div&gt;email&lt;/div&gt;&lt;div&gt;telefono&lt;/div&gt;" style="align=left;strokeColor=none;fillColor=none;spacingLeft=4;fontSize=12;verticalAlign=top;resizable=0;rotatable=0;part=1;html=1;" vertex="1" parent="E8Ke-DdmPu5ThaMP5Xu_-1">
          <mxGeometry y="50" width="160" height="100" as="geometry" />
        </mxCell>
        <mxCell id="E8Ke-DdmPu5ThaMP5Xu_-3" value="JUGADOR" style="swimlane;childLayout=stackLayout;horizontal=1;startSize=50;horizontalStack=0;rounded=1;fontSize=14;fontStyle=0;strokeWidth=2;resizeParent=0;resizeLast=1;shadow=0;dashed=0;align=center;arcSize=4;whiteSpace=wrap;html=1;" vertex="1" parent="1">
          <mxGeometry x="-482" y="137" width="160" height="122" as="geometry">
            <mxRectangle x="-482" y="137" width="103" height="50" as="alternateBounds" />
          </mxGeometry>
        </mxCell>
        <mxCell id="E8Ke-DdmPu5ThaMP5Xu_-4" value="&lt;div&gt;id&lt;/div&gt;&lt;div&gt;nombre&lt;/div&gt;&lt;div&gt;dorsal&lt;/div&gt;&lt;div&gt;DNI&lt;/div&gt;" style="align=left;strokeColor=none;fillColor=none;spacingLeft=4;fontSize=12;verticalAlign=top;resizable=0;rotatable=0;part=1;html=1;" vertex="1" parent="E8Ke-DdmPu5ThaMP5Xu_-3">
          <mxGeometry y="50" width="160" height="72" as="geometry" />
        </mxCell>
        <mxCell id="E8Ke-DdmPu5ThaMP5Xu_-5" value="PARTIDO" style="swimlane;childLayout=stackLayout;horizontal=1;startSize=50;horizontalStack=0;rounded=1;fontSize=14;fontStyle=0;strokeWidth=2;resizeParent=0;resizeLast=1;shadow=0;dashed=0;align=center;arcSize=4;whiteSpace=wrap;html=1;" vertex="1" parent="1">
          <mxGeometry x="-251" y="-15" width="160" height="123" as="geometry" />
        </mxCell>
        <mxCell id="E8Ke-DdmPu5ThaMP5Xu_-6" value="&lt;div&gt;id&lt;/div&gt;&lt;div&gt;fecha&lt;/div&gt;" style="align=left;strokeColor=none;fillColor=none;spacingLeft=4;fontSize=12;verticalAlign=top;resizable=0;rotatable=0;part=1;html=1;" vertex="1" parent="E8Ke-DdmPu5ThaMP5Xu_-5">
          <mxGeometry y="50" width="160" height="73" as="geometry" />
        </mxCell>
        <mxCell id="E8Ke-DdmPu5ThaMP5Xu_-7" value="ARBITRO" style="swimlane;childLayout=stackLayout;horizontal=1;startSize=50;horizontalStack=0;rounded=1;fontSize=14;fontStyle=0;strokeWidth=2;resizeParent=0;resizeLast=1;shadow=0;dashed=0;align=center;arcSize=4;whiteSpace=wrap;html=1;" vertex="1" parent="1">
          <mxGeometry x="-257" y="598" width="160" height="123" as="geometry" />
        </mxCell>
        <mxCell id="E8Ke-DdmPu5ThaMP5Xu_-8" value="&lt;div&gt;id&lt;/div&gt;&lt;div&gt;nombre&lt;/div&gt;&lt;div&gt;DNI&lt;/div&gt;" style="align=left;strokeColor=none;fillColor=none;spacingLeft=4;fontSize=12;verticalAlign=top;resizable=0;rotatable=0;part=1;html=1;" vertex="1" parent="E8Ke-DdmPu5ThaMP5Xu_-7">
          <mxGeometry y="50" width="160" height="73" as="geometry" />
        </mxCell>
        <mxCell id="E8Ke-DdmPu5ThaMP5Xu_-10" value="EQUIPO" style="swimlane;childLayout=stackLayout;horizontal=1;startSize=50;horizontalStack=0;rounded=1;fontSize=14;fontStyle=0;strokeWidth=2;resizeParent=0;resizeLast=1;shadow=0;dashed=0;align=center;arcSize=4;whiteSpace=wrap;html=1;" vertex="1" parent="1">
          <mxGeometry x="-482" y="412" width="160" height="139" as="geometry" />
        </mxCell>
        <mxCell id="E8Ke-DdmPu5ThaMP5Xu_-11" value="&lt;div&gt;id&lt;/div&gt;&lt;div&gt;nombre&lt;/div&gt;&lt;div&gt;escudo&lt;/div&gt;&lt;div&gt;color_pri&lt;/div&gt;&lt;div&gt;color_sec&lt;/div&gt;" style="align=left;strokeColor=none;fillColor=none;spacingLeft=4;fontSize=12;verticalAlign=top;resizable=0;rotatable=0;part=1;html=1;" vertex="1" parent="E8Ke-DdmPu5ThaMP5Xu_-10">
          <mxGeometry y="50" width="160" height="89" as="geometry" />
        </mxCell>
        <mxCell id="E8Ke-DdmPu5ThaMP5Xu_-24" style="edgeStyle=orthogonalEdgeStyle;shape=connector;curved=1;rounded=0;orthogonalLoop=1;jettySize=auto;html=1;strokeColor=default;align=center;verticalAlign=middle;fontFamily=Helvetica;fontSize=11;fontColor=default;labelBackgroundColor=default;startFill=0;endArrow=none;" edge="1" parent="1" source="E8Ke-DdmPu5ThaMP5Xu_-13" target="E8Ke-DdmPu5ThaMP5Xu_-10">
          <mxGeometry relative="1" as="geometry" />
        </mxCell>
        <mxCell id="E8Ke-DdmPu5ThaMP5Xu_-42" value="N" style="edgeLabel;html=1;align=center;verticalAlign=middle;resizable=0;points=[];fontFamily=Helvetica;fontSize=11;fontColor=default;labelBackgroundColor=default;" connectable="0" vertex="1" parent="E8Ke-DdmPu5ThaMP5Xu_-24">
          <mxGeometry x="0.6483" relative="1" as="geometry">
            <mxPoint x="4" y="-10" as="offset" />
          </mxGeometry>
        </mxCell>
        <mxCell id="E8Ke-DdmPu5ThaMP5Xu_-13" value="maneja" style="shape=rhombus;perimeter=rhombusPerimeter;whiteSpace=wrap;html=1;align=center;rounded=1;" vertex="1" parent="1">
          <mxGeometry x="-630" y="465" width="76" height="33" as="geometry" />
        </mxCell>
        <mxCell id="E8Ke-DdmPu5ThaMP5Xu_-22" value="" style="shape=connector;rounded=0;orthogonalLoop=1;jettySize=auto;html=1;strokeColor=default;align=center;verticalAlign=middle;fontFamily=Helvetica;fontSize=11;fontColor=default;labelBackgroundColor=default;startFill=0;endArrow=none;" edge="1" parent="1" source="E8Ke-DdmPu5ThaMP5Xu_-14" target="E8Ke-DdmPu5ThaMP5Xu_-3">
          <mxGeometry relative="1" as="geometry" />
        </mxCell>
        <mxCell id="E8Ke-DdmPu5ThaMP5Xu_-40" value="N" style="edgeLabel;html=1;align=center;verticalAlign=middle;resizable=0;points=[];fontFamily=Helvetica;fontSize=11;fontColor=default;labelBackgroundColor=default;" connectable="0" vertex="1" parent="E8Ke-DdmPu5ThaMP5Xu_-22">
          <mxGeometry x="0.5012" y="3" relative="1" as="geometry">
            <mxPoint x="2" y="-8" as="offset" />
          </mxGeometry>
        </mxCell>
        <mxCell id="E8Ke-DdmPu5ThaMP5Xu_-14" value="maneja" style="shape=rhombus;perimeter=rhombusPerimeter;whiteSpace=wrap;html=1;align=center;rounded=1;" vertex="1" parent="1">
          <mxGeometry x="-630" y="181.5" width="76" height="33" as="geometry" />
        </mxCell>
        <mxCell id="E8Ke-DdmPu5ThaMP5Xu_-26" style="shape=connector;rounded=0;orthogonalLoop=1;jettySize=auto;html=1;strokeColor=default;align=center;verticalAlign=middle;fontFamily=Helvetica;fontSize=11;fontColor=default;labelBackgroundColor=default;startFill=0;endArrow=none;" edge="1" parent="1" source="E8Ke-DdmPu5ThaMP5Xu_-15" target="E8Ke-DdmPu5ThaMP5Xu_-7">
          <mxGeometry relative="1" as="geometry" />
        </mxCell>
        <mxCell id="E8Ke-DdmPu5ThaMP5Xu_-43" value="N" style="edgeLabel;html=1;align=center;verticalAlign=middle;resizable=0;points=[];fontFamily=Helvetica;fontSize=11;fontColor=default;labelBackgroundColor=default;" connectable="0" vertex="1" parent="E8Ke-DdmPu5ThaMP5Xu_-26">
          <mxGeometry x="0.8858" y="1" relative="1" as="geometry">
            <mxPoint x="3" y="-10" as="offset" />
          </mxGeometry>
        </mxCell>
        <mxCell id="E8Ke-DdmPu5ThaMP5Xu_-15" value="maneja" style="shape=rhombus;perimeter=rhombusPerimeter;whiteSpace=wrap;html=1;align=center;rounded=1;" vertex="1" parent="1">
          <mxGeometry x="-623" y="643" width="76" height="33" as="geometry" />
        </mxCell>
        <mxCell id="E8Ke-DdmPu5ThaMP5Xu_-20" style="shape=connector;rounded=0;orthogonalLoop=1;jettySize=auto;html=1;strokeColor=default;align=center;verticalAlign=middle;fontFamily=Helvetica;fontSize=11;fontColor=default;labelBackgroundColor=default;startFill=0;endArrow=none;" edge="1" parent="1" source="E8Ke-DdmPu5ThaMP5Xu_-16" target="E8Ke-DdmPu5ThaMP5Xu_-5">
          <mxGeometry relative="1" as="geometry" />
        </mxCell>
        <mxCell id="E8Ke-DdmPu5ThaMP5Xu_-41" value="N" style="edgeLabel;html=1;align=center;verticalAlign=middle;resizable=0;points=[];fontFamily=Helvetica;fontSize=11;fontColor=default;labelBackgroundColor=default;" connectable="0" vertex="1" parent="E8Ke-DdmPu5ThaMP5Xu_-20">
          <mxGeometry x="0.884" relative="1" as="geometry">
            <mxPoint x="2" y="-10" as="offset" />
          </mxGeometry>
        </mxCell>
        <mxCell id="E8Ke-DdmPu5ThaMP5Xu_-16" value="maneja" style="shape=rhombus;perimeter=rhombusPerimeter;whiteSpace=wrap;html=1;align=center;rounded=1;" vertex="1" parent="1">
          <mxGeometry x="-567" y="42" width="76" height="33" as="geometry" />
        </mxCell>
        <mxCell id="E8Ke-DdmPu5ThaMP5Xu_-25" style="edgeStyle=orthogonalEdgeStyle;shape=connector;curved=1;rounded=0;orthogonalLoop=1;jettySize=auto;html=1;strokeColor=default;align=center;verticalAlign=middle;fontFamily=Helvetica;fontSize=11;fontColor=default;labelBackgroundColor=default;startFill=0;endArrow=none;" edge="1" parent="1" source="E8Ke-DdmPu5ThaMP5Xu_-2" target="E8Ke-DdmPu5ThaMP5Xu_-15">
          <mxGeometry relative="1" as="geometry">
            <Array as="points">
              <mxPoint x="-825" y="660" />
            </Array>
          </mxGeometry>
        </mxCell>
        <mxCell id="E8Ke-DdmPu5ThaMP5Xu_-29" value="" style="shape=connector;rounded=0;orthogonalLoop=1;jettySize=auto;html=1;strokeColor=default;align=center;verticalAlign=middle;fontFamily=Helvetica;fontSize=11;fontColor=default;labelBackgroundColor=default;startFill=0;endArrow=none;" edge="1" parent="1" source="E8Ke-DdmPu5ThaMP5Xu_-27" target="E8Ke-DdmPu5ThaMP5Xu_-4">
          <mxGeometry relative="1" as="geometry" />
        </mxCell>
        <mxCell id="E8Ke-DdmPu5ThaMP5Xu_-44" value="N" style="edgeLabel;html=1;align=center;verticalAlign=middle;resizable=0;points=[];fontFamily=Helvetica;fontSize=11;fontColor=default;labelBackgroundColor=default;" connectable="0" vertex="1" parent="E8Ke-DdmPu5ThaMP5Xu_-29">
          <mxGeometry x="0.6014" y="1" relative="1" as="geometry">
            <mxPoint x="-8" as="offset" />
          </mxGeometry>
        </mxCell>
        <mxCell id="E8Ke-DdmPu5ThaMP5Xu_-33" style="edgeStyle=none;shape=connector;rounded=0;orthogonalLoop=1;jettySize=auto;html=1;strokeColor=default;align=center;verticalAlign=middle;fontFamily=Helvetica;fontSize=11;fontColor=default;labelBackgroundColor=default;startFill=0;endArrow=none;" edge="1" parent="1" source="E8Ke-DdmPu5ThaMP5Xu_-27" target="E8Ke-DdmPu5ThaMP5Xu_-10">
          <mxGeometry relative="1" as="geometry" />
        </mxCell>
        <mxCell id="E8Ke-DdmPu5ThaMP5Xu_-27" value="tiene" style="shape=rhombus;perimeter=rhombusPerimeter;whiteSpace=wrap;html=1;align=center;rounded=1;" vertex="1" parent="1">
          <mxGeometry x="-440" y="319" width="76" height="33" as="geometry" />
        </mxCell>
        <mxCell id="E8Ke-DdmPu5ThaMP5Xu_-35" style="edgeStyle=none;shape=connector;rounded=0;orthogonalLoop=1;jettySize=auto;html=1;strokeColor=default;align=center;verticalAlign=middle;fontFamily=Helvetica;fontSize=11;fontColor=default;labelBackgroundColor=default;startFill=0;endArrow=none;" edge="1" parent="1" source="E8Ke-DdmPu5ThaMP5Xu_-34" target="E8Ke-DdmPu5ThaMP5Xu_-5">
          <mxGeometry relative="1" as="geometry" />
        </mxCell>
        <mxCell id="E8Ke-DdmPu5ThaMP5Xu_-46" value="N" style="edgeLabel;html=1;align=center;verticalAlign=middle;resizable=0;points=[];fontFamily=Helvetica;fontSize=11;fontColor=default;labelBackgroundColor=default;" connectable="0" vertex="1" parent="E8Ke-DdmPu5ThaMP5Xu_-35">
          <mxGeometry x="0.8423" y="-1" relative="1" as="geometry">
            <mxPoint x="-9" y="-3" as="offset" />
          </mxGeometry>
        </mxCell>
        <mxCell id="E8Ke-DdmPu5ThaMP5Xu_-36" style="edgeStyle=none;shape=connector;rounded=0;orthogonalLoop=1;jettySize=auto;html=1;strokeColor=default;align=center;verticalAlign=middle;fontFamily=Helvetica;fontSize=11;fontColor=default;labelBackgroundColor=default;startFill=0;endArrow=none;" edge="1" parent="1" source="E8Ke-DdmPu5ThaMP5Xu_-34" target="E8Ke-DdmPu5ThaMP5Xu_-10">
          <mxGeometry relative="1" as="geometry" />
        </mxCell>
        <mxCell id="E8Ke-DdmPu5ThaMP5Xu_-34" value="local" style="shape=rhombus;perimeter=rhombusPerimeter;whiteSpace=wrap;html=1;align=center;rounded=1;" vertex="1" parent="1">
          <mxGeometry x="-348" y="279" width="76" height="33" as="geometry" />
        </mxCell>
        <mxCell id="E8Ke-DdmPu5ThaMP5Xu_-38" style="edgeStyle=none;shape=connector;rounded=0;orthogonalLoop=1;jettySize=auto;html=1;strokeColor=default;align=center;verticalAlign=middle;fontFamily=Helvetica;fontSize=11;fontColor=default;labelBackgroundColor=default;startFill=0;endArrow=none;" edge="1" parent="1" source="E8Ke-DdmPu5ThaMP5Xu_-37" target="E8Ke-DdmPu5ThaMP5Xu_-5">
          <mxGeometry relative="1" as="geometry" />
        </mxCell>
        <mxCell id="E8Ke-DdmPu5ThaMP5Xu_-48" value="N" style="edgeLabel;html=1;align=center;verticalAlign=middle;resizable=0;points=[];fontFamily=Helvetica;fontSize=11;fontColor=default;labelBackgroundColor=default;" connectable="0" vertex="1" parent="E8Ke-DdmPu5ThaMP5Xu_-38">
          <mxGeometry x="0.88" y="1" relative="1" as="geometry">
            <mxPoint x="12" y="-2" as="offset" />
          </mxGeometry>
        </mxCell>
        <mxCell id="E8Ke-DdmPu5ThaMP5Xu_-39" style="edgeStyle=none;shape=connector;rounded=0;orthogonalLoop=1;jettySize=auto;html=1;strokeColor=default;align=center;verticalAlign=middle;fontFamily=Helvetica;fontSize=11;fontColor=default;labelBackgroundColor=default;startFill=0;endArrow=none;" edge="1" parent="1" source="E8Ke-DdmPu5ThaMP5Xu_-37" target="E8Ke-DdmPu5ThaMP5Xu_-7">
          <mxGeometry relative="1" as="geometry" />
        </mxCell>
        <mxCell id="E8Ke-DdmPu5ThaMP5Xu_-47" value="N" style="edgeLabel;html=1;align=center;verticalAlign=middle;resizable=0;points=[];fontFamily=Helvetica;fontSize=11;fontColor=default;labelBackgroundColor=default;" connectable="0" vertex="1" parent="E8Ke-DdmPu5ThaMP5Xu_-39">
          <mxGeometry x="0.8633" y="-2" relative="1" as="geometry">
            <mxPoint x="11" y="1" as="offset" />
          </mxGeometry>
        </mxCell>
        <mxCell id="E8Ke-DdmPu5ThaMP5Xu_-37" value="tiene" style="shape=rhombus;perimeter=rhombusPerimeter;whiteSpace=wrap;html=1;align=center;rounded=1;" vertex="1" parent="1">
          <mxGeometry x="-215" y="361" width="76" height="33" as="geometry" />
        </mxCell>
        <mxCell id="E8Ke-DdmPu5ThaMP5Xu_-50" style="edgeStyle=none;shape=connector;rounded=0;orthogonalLoop=1;jettySize=auto;html=1;strokeColor=default;align=center;verticalAlign=middle;fontFamily=Helvetica;fontSize=11;fontColor=default;labelBackgroundColor=default;startFill=0;endArrow=none;" edge="1" parent="1" source="E8Ke-DdmPu5ThaMP5Xu_-49" target="E8Ke-DdmPu5ThaMP5Xu_-10">
          <mxGeometry relative="1" as="geometry" />
        </mxCell>
        <mxCell id="E8Ke-DdmPu5ThaMP5Xu_-51" style="edgeStyle=none;shape=connector;rounded=0;orthogonalLoop=1;jettySize=auto;html=1;strokeColor=default;align=center;verticalAlign=middle;fontFamily=Helvetica;fontSize=11;fontColor=default;labelBackgroundColor=default;startFill=0;endArrow=none;" edge="1" parent="1" source="E8Ke-DdmPu5ThaMP5Xu_-49" target="E8Ke-DdmPu5ThaMP5Xu_-6">
          <mxGeometry relative="1" as="geometry" />
        </mxCell>
        <mxCell id="E8Ke-DdmPu5ThaMP5Xu_-52" value="N" style="edgeLabel;html=1;align=center;verticalAlign=middle;resizable=0;points=[];fontFamily=Helvetica;fontSize=11;fontColor=default;labelBackgroundColor=default;" connectable="0" vertex="1" parent="E8Ke-DdmPu5ThaMP5Xu_-51">
          <mxGeometry x="0.7698" y="3" relative="1" as="geometry">
            <mxPoint x="-5" y="-7" as="offset" />
          </mxGeometry>
        </mxCell>
        <mxCell id="E8Ke-DdmPu5ThaMP5Xu_-49" value="visitante" style="shape=rhombus;perimeter=rhombusPerimeter;whiteSpace=wrap;html=1;align=center;rounded=1;" vertex="1" parent="1">
          <mxGeometry x="-327" y="312" width="76" height="33" as="geometry" />
        </mxCell>
        <mxCell id="FOldFa_URZsbehbHwNID-1" value="JORNADA" style="swimlane;childLayout=stackLayout;horizontal=1;startSize=50;horizontalStack=0;rounded=1;fontSize=14;fontStyle=0;strokeWidth=2;resizeParent=0;resizeLast=1;shadow=0;dashed=0;align=center;arcSize=4;whiteSpace=wrap;html=1;" vertex="1" parent="1">
          <mxGeometry x="-572" y="-234" width="160" height="123" as="geometry" />
        </mxCell>
        <mxCell id="FOldFa_URZsbehbHwNID-2" value="&lt;div&gt;id&lt;/div&gt;&lt;div&gt;visibilidad (publica/privada)&lt;/div&gt;&lt;div&gt;cÃ³digo&lt;/div&gt;" style="align=left;strokeColor=none;fillColor=none;spacingLeft=4;fontSize=12;verticalAlign=top;resizable=0;rotatable=0;part=1;html=1;" vertex="1" parent="FOldFa_URZsbehbHwNID-1">
          <mxGeometry y="50" width="160" height="73" as="geometry" />
        </mxCell>
        <mxCell id="FOldFa_URZsbehbHwNID-6" style="edgeStyle=orthogonalEdgeStyle;shape=connector;curved=1;rounded=0;orthogonalLoop=1;jettySize=auto;html=1;strokeColor=default;align=center;verticalAlign=middle;fontFamily=Helvetica;fontSize=11;fontColor=default;labelBackgroundColor=default;startFill=0;endArrow=none;" edge="1" parent="1" source="FOldFa_URZsbehbHwNID-3" target="FOldFa_URZsbehbHwNID-1">
          <mxGeometry relative="1" as="geometry">
            <Array as="points">
              <mxPoint x="-823" y="-163" />
            </Array>
          </mxGeometry>
        </mxCell>
        <mxCell id="FOldFa_URZsbehbHwNID-3" value="maneja" style="shape=rhombus;perimeter=rhombusPerimeter;whiteSpace=wrap;html=1;align=center;rounded=1;" vertex="1" parent="1">
          <mxGeometry x="-866" y="-15" width="76" height="33" as="geometry" />
        </mxCell>
        <mxCell id="FOldFa_URZsbehbHwNID-9" style="edgeStyle=orthogonalEdgeStyle;shape=connector;curved=1;rounded=0;orthogonalLoop=1;jettySize=auto;html=1;strokeColor=default;align=center;verticalAlign=middle;fontFamily=Helvetica;fontSize=11;fontColor=default;labelBackgroundColor=default;startFill=0;endArrow=none;" edge="1" parent="1" source="FOldFa_URZsbehbHwNID-7" target="E8Ke-DdmPu5ThaMP5Xu_-5">
          <mxGeometry relative="1" as="geometry">
            <Array as="points">
              <mxPoint x="-171" y="-147" />
            </Array>
          </mxGeometry>
        </mxCell>
        <mxCell id="FOldFa_URZsbehbHwNID-10" value="N" style="edgeLabel;html=1;align=center;verticalAlign=middle;resizable=0;points=[];fontFamily=Helvetica;fontSize=11;fontColor=default;labelBackgroundColor=default;" connectable="0" vertex="1" parent="FOldFa_URZsbehbHwNID-9">
          <mxGeometry x="0.8554" y="2" relative="1" as="geometry">
            <mxPoint x="7" as="offset" />
          </mxGeometry>
        </mxCell>
        <mxCell id="FOldFa_URZsbehbHwNID-7" value="tiene" style="shape=rhombus;perimeter=rhombusPerimeter;whiteSpace=wrap;html=1;align=center;rounded=1;" vertex="1" parent="1">
          <mxGeometry x="-327" y="-164" width="76" height="33" as="geometry" />
        </mxCell>
        <mxCell id="FOldFa_URZsbehbHwNID-8" style="edgeStyle=orthogonalEdgeStyle;shape=connector;curved=1;rounded=0;orthogonalLoop=1;jettySize=auto;html=1;strokeColor=default;align=center;verticalAlign=middle;fontFamily=Helvetica;fontSize=11;fontColor=default;labelBackgroundColor=default;startFill=0;endArrow=none;" edge="1" parent="1" source="FOldFa_URZsbehbHwNID-2" target="FOldFa_URZsbehbHwNID-7">
          <mxGeometry relative="1" as="geometry" />
        </mxCell>
        <mxCell id="FOldFa_URZsbehbHwNID-12" value="0" style="edgeLabel;html=1;align=center;verticalAlign=middle;resizable=0;points=[];fontFamily=Helvetica;fontSize=11;fontColor=default;labelBackgroundColor=default;" connectable="0" vertex="1" parent="FOldFa_URZsbehbHwNID-8">
          <mxGeometry x="-0.8571" y="-3" relative="1" as="geometry">
            <mxPoint x="2" y="-12" as="offset" />
          </mxGeometry>
        </mxCell>
        <mxCell id="xiWH_5aWqwxhcJs403z--1" value="RELOJ" style="swimlane;childLayout=stackLayout;horizontal=1;startSize=50;horizontalStack=0;rounded=1;fontSize=14;fontStyle=0;strokeWidth=2;resizeParent=0;resizeLast=1;shadow=0;dashed=0;align=center;arcSize=4;whiteSpace=wrap;html=1;" vertex="1" parent="1">
          <mxGeometry x="-45" y="598" width="160" height="123" as="geometry" />
        </mxCell>
        <mxCell id="xiWH_5aWqwxhcJs403z--2" value="&lt;div&gt;cÃ³digo&lt;/div&gt;&lt;div&gt;&lt;br&gt;&lt;/div&gt;" style="align=left;strokeColor=none;fillColor=none;spacingLeft=4;fontSize=12;verticalAlign=top;resizable=0;rotatable=0;part=1;html=1;" vertex="1" parent="xiWH_5aWqwxhcJs403z--1">
          <mxGeometry y="50" width="160" height="73" as="geometry" />
        </mxCell>
        <mxCell id="xiWH_5aWqwxhcJs403z--7" value="&lt;div&gt;&lt;b&gt;Pasos de emparejamiento:&lt;/b&gt;&lt;/div&gt;&lt;div&gt;1. Reloj genera un cÃ³digo, (puede no ser Ãºnico)&lt;/div&gt;&lt;div&gt;2. Movil, escribe ese codigo, y genera un 2FA temporal para ese codigo&lt;/div&gt;&lt;div&gt;3. Reloj, comprueba que arbitros tienen ese mismo codigo y no estÃ¡n expirados&lt;/div&gt;&lt;div&gt;4. Reloj lee el codigo 2FA y genera otros 5 random diferentes.&lt;/div&gt;&lt;div&gt;5. Reloj elige el 2FA correcto y lo compara y lo almacena (junto a su propio cÃ³digo)&lt;/div&gt;&lt;div&gt;6. Reloj obtiene datos del Ã¡rbitro al confirmar el 2FA.&lt;/div&gt;&lt;div&gt;&lt;br&gt;&lt;/div&gt;&lt;div&gt;7. Reloj puede desemparejarse&lt;/div&gt;&lt;div&gt;8. Movil puede desemparejarse borrando su 2FA_temp y generando uno nuevo &lt;br&gt;&lt;/div&gt;&lt;div&gt;&lt;span style=&quot;white-space: pre;&quot;&gt;&#x9;&lt;/span&gt;con un nuevo cÃ³digo de reloj&lt;/div&gt;" style="text;html=1;align=left;verticalAlign=middle;resizable=0;points=[];autosize=1;strokeColor=none;fillColor=none;fontFamily=Helvetica;fontSize=11;fontColor=default;labelBackgroundColor=default;" vertex="1" parent="1">
          <mxGeometry x="179" y="643" width="423" height="157" as="geometry" />
        </mxCell>
        <mxCell id="xiWH_5aWqwxhcJs403z--8" value="&lt;div align=&quot;center&quot;&gt;(dÃ©bil)&lt;/div&gt;&lt;div align=&quot;center&quot;&gt;2FA_TEMP&lt;/div&gt;" style="swimlane;childLayout=stackLayout;horizontal=1;startSize=50;horizontalStack=0;rounded=1;fontSize=14;fontStyle=0;strokeWidth=2;resizeParent=0;resizeLast=1;shadow=0;dashed=0;align=center;arcSize=4;whiteSpace=wrap;html=1;strokeColor=default;perimeterSpacing=1;fixDash=0;comic=0;swimlaneBody=1;absoluteArcSize=0;glass=0;swimlaneFillColor=none;gradientColor=none;" vertex="1" parent="1">
          <mxGeometry x="-45" y="760.5" width="160" height="123" as="geometry" />
        </mxCell>
        <mxCell id="xiWH_5aWqwxhcJs403z--9" value="&lt;div&gt;cÃ³digo_2fa&lt;/div&gt;&lt;div&gt;cÃ³digo_reloj&lt;/div&gt;&lt;div&gt;expiraciÃ³n&lt;/div&gt;&lt;div&gt;emparejado&lt;/div&gt;" style="align=left;strokeColor=none;fillColor=none;spacingLeft=4;fontSize=12;verticalAlign=top;resizable=0;rotatable=0;part=1;html=1;" vertex="1" parent="xiWH_5aWqwxhcJs403z--8">
          <mxGeometry y="50" width="160" height="73" as="geometry" />
        </mxCell>
        <mxCell id="xiWH_5aWqwxhcJs403z--12" style="edgeStyle=none;shape=connector;rounded=0;orthogonalLoop=1;jettySize=auto;html=1;strokeColor=default;align=center;verticalAlign=middle;fontFamily=Helvetica;fontSize=11;fontColor=default;labelBackgroundColor=default;startFill=0;endArrow=none;" edge="1" parent="1" source="xiWH_5aWqwxhcJs403z--11" target="E8Ke-DdmPu5ThaMP5Xu_-8">
          <mxGeometry relative="1" as="geometry" />
        </mxCell>
        <mxCell id="xiWH_5aWqwxhcJs403z--13" style="edgeStyle=none;shape=connector;rounded=0;orthogonalLoop=1;jettySize=auto;html=1;strokeColor=default;align=center;verticalAlign=middle;fontFamily=Helvetica;fontSize=11;fontColor=default;labelBackgroundColor=default;startFill=0;endArrow=none;" edge="1" parent="1" source="xiWH_5aWqwxhcJs403z--11" target="xiWH_5aWqwxhcJs403z--8">
          <mxGeometry relative="1" as="geometry" />
        </mxCell>
        <mxCell id="xiWH_5aWqwxhcJs403z--11" value="Relationship" style="shape=rhombus;double=1;perimeter=rhombusPerimeter;whiteSpace=wrap;html=1;align=center;fontFamily=Helvetica;fontSize=11;fontColor=default;labelBackgroundColor=default;rounded=1;" vertex="1" parent="1">
          <mxGeometry x="-237" y="792" width="120" height="60" as="geometry" />
        </mxCell>
      </root>
    </mxGraphModel>
  </diagram>
</mxfile>
